<?xml version="1.0" standalone="no"?>
<!DOCTYPE svg PUBLIC "-//W3C//DTD SVG 20010904//EN"
 "http://www.w3.org/TR/2001/REC-SVG-20010904/DTD/svg10.dtd">
<svg version="1.0" xmlns="http://www.w3.org/2000/svg"
 width="1080.000000pt" height="1080.000000pt" viewBox="0 0 1080.000000 1080.000000"
 preserveAspectRatio="xMidYMid meet">

<g transform="translate(0.000000,1080.000000) scale(0.100000,-0.100000)"
fill="#000000" stroke="none">
<path d="M5285 9599 c-374 -31 -610 -71 -877 -150 -978 -289 -1788 -971 -2238
-1884 -91 -185 -174 -392 -222 -552 l-33 -112 -90 -4 -90 -3 93 -2 c50 -1 92
-3 92 -5 0 -1 -13 -61 -29 -132 -37 -164 -66 -329 -83 -470 -17 -146 -17 -626
0 -765 14 -107 48 -338 57 -377 4 -18 0 -22 -22 -26 l-28 -4 26 -2 c24 -1 27
-7 43 -80 103 -480 325 -964 632 -1378 594 -801 1521 -1340 2489 -1448 323
-36 482 -36 795 1 253 29 438 70 690 154 454 150 856 374 1218 676 95 80 311
292 399 393 96 109 254 321 323 431 29 47 63 102 76 122 13 21 53 93 88 160
140 267 251 571 323 884 l38 164 40 0 c45 0 180 23 264 44 65 17 174 56 169
62 -2 1 -34 -8 -70 -21 -125 -45 -378 -84 -378 -57 0 25 71 255 91 293 4 9 12
38 16 65 11 68 5 577 -8 699 -6 55 -12 117 -14 138 -2 21 -7 57 -11 80 -4 23
-8 51 -10 62 -4 34 -37 150 -44 155 -4 3 -12 25 -19 50 -6 25 -14 52 -16 60
-2 8 -9 32 -14 53 -5 21 -15 45 -22 53 -29 35 38 42 241 23 404 -37 619 -176
705 -454 64 -211 55 -472 -25 -710 -69 -203 -182 -348 -346 -442 -35 -20 -62
-39 -60 -41 7 -6 109 56 168 103 294 231 410 823 235 1195 -47 98 -158 205
-267 258 -152 72 -338 109 -584 114 l-129 3 -37 110 c-238 710 -656 1302
-1240 1756 -427 333 -995 587 -1549 695 -86 16 -364 50 -491 59 -47 3 -103 7
-125 9 -22 2 -85 0 -140 -5z m2312 -1408 c22 -16 61 -54 86 -85 40 -49 69 -91
162 -236 138 -214 537 -938 540 -981 1 -9 9 -25 18 -34 10 -9 15 -20 12 -25
-5 -8 9 -42 65 -165 15 -33 33 -78 40 -100 7 -22 16 -45 21 -51 5 -6 6 -14 2
-17 -3 -4 0 -13 6 -21 7 -8 10 -20 6 -26 -3 -5 -2 -10 3 -10 5 0 12 -11 14
-25 3 -13 1 -22 -3 -19 -18 11 -8 -27 10 -43 11 -9 18 -20 15 -25 -3 -4 -2
-13 2 -20 10 -16 12 -58 2 -52 -13 8 -9 -11 4 -24 9 -9 9 -12 1 -12 -9 0 -8
-10 2 -35 8 -18 15 -44 15 -57 1 -52 7 -104 14 -121 5 -10 4 -23 -3 -31 -9
-11 -9 -16 0 -22 8 -5 10 -3 4 7 -5 8 -4 10 0 6 12 -10 15 -38 4 -31 -5 3 -9
-4 -9 -15 0 -10 6 -22 13 -24 8 -4 8 -8 2 -14 -13 -11 -17 -80 -6 -101 6 -11
4 -20 -7 -29 -12 -8 -13 -12 -4 -13 10 0 12 -12 6 -47 -3 -27 -10 -52 -15 -57
-5 -5 -3 -16 3 -24 9 -10 9 -15 -1 -21 -7 -5 -13 -12 -14 -17 -1 -5 -5 -8 -8
-7 -3 1 -6 -4 -6 -12 0 -8 5 -11 10 -8 6 3 2 -6 -9 -20 -10 -15 -25 -27 -31
-27 -7 0 -18 -9 -25 -20 -7 -11 -16 -20 -20 -20 -4 0 -38 -19 -75 -41 -61 -38
-86 -55 -188 -132 -44 -32 -206 -178 -310 -277 -514 -491 -635 -593 -791 -667
-94 -45 -184 -49 -254 -14 -141 72 -247 217 -443 606 -53 105 -114 212 -136
238 -113 135 -287 221 -562 277 -150 31 -148 28 -89 102 75 93 95 162 95 323
0 127 -1 132 -37 221 -21 51 -38 97 -38 104 0 21 -71 110 -108 135 -42 29 -61
33 -36 8 9 -10 29 -42 42 -73 23 -48 27 -75 34 -220 4 -91 10 -210 14 -265 5
-88 3 -107 -16 -158 -23 -60 -79 -125 -135 -154 -16 -9 -62 -18 -101 -21 -57
-4 -80 0 -118 16 -26 12 -44 17 -41 12 6 -9 -5 -12 -135 -30 -237 -34 -431
-119 -551 -240 -52 -53 -76 -88 -118 -176 -29 -60 -80 -163 -112 -229 -118
-242 -263 -431 -375 -486 -74 -36 -177 -34 -264 7 -148 69 -246 147 -613 488
-484 449 -625 550 -890 642 -131 45 -161 70 -177 150 -19 89 8 285 64 469 55
184 235 637 373 943 303 671 634 1162 782 1162 43 0 78 -32 153 -140 103 -148
227 -225 436 -270 159 -35 290 -40 1047 -40 874 -1 908 1 1465 89 358 57 353
56 492 90 185 46 336 110 517 220 46 28 99 56 117 63 19 7 34 16 34 20 0 4 20
8 43 8 33 0 54 -8 84 -29z m-2387 -2951 c159 -25 229 -25 398 1 224 35 393 14
483 -61 20 -15 51 -57 69 -91 27 -52 34 -77 38 -141 4 -65 1 -84 -18 -123 -47
-97 -231 -261 -382 -340 -109 -58 -196 -75 -378 -75 -86 0 -183 5 -215 11
-130 24 -276 112 -430 261 -127 122 -160 177 -159 268 1 116 69 228 161 267
114 47 238 54 433 23z"/>
<path d="M4311 7519 c-142 -24 -308 -100 -418 -191 -105 -87 -223 -270 -239
-370 -16 -97 96 -180 149 -110 12 15 40 47 63 72 22 25 54 69 70 99 91 170
273 272 489 275 110 1 179 -16 249 -63 21 -14 50 -34 65 -43 36 -25 102 -23
135 3 62 49 70 129 19 189 -34 40 -192 117 -278 135 -77 16 -219 18 -304 4z"/>
<path d="M6320 7520 c-80 -11 -136 -28 -210 -63 -75 -37 -155 -109 -166 -150
-11 -45 12 -105 49 -127 54 -33 103 -26 182 25 39 25 95 53 125 62 157 48 399
-14 525 -134 49 -46 99 -116 124 -175 10 -24 40 -70 67 -103 47 -58 51 -60 84
-55 95 16 131 92 98 205 -6 22 -11 43 -10 48 1 4 -3 7 -9 7 -5 0 -8 4 -4 9 16
26 -172 270 -197 255 -4 -3 -11 2 -14 10 -3 9 -10 16 -15 16 -4 0 -28 14 -53
30 -150 101 -408 164 -576 140z"/>
<path d="M5035 6761 c43 -87 90 -273 78 -311 -3 -8 7 5 22 30 15 25 22 46 16
48 -6 2 -13 20 -17 40 -8 43 -66 165 -95 202 l-20 25 16 -34z"/>
<path d="M7090 6699 c16 -42 32 -94 36 -115 5 -22 9 -41 9 -44 10 -40 24 -141
25 -180 0 -20 2 -22 10 -10 6 8 8 35 5 60 -2 25 -7 74 -11 110 -3 36 -10 70
-16 77 -5 7 -7 17 -3 23 3 5 1 10 -4 10 -6 0 -11 6 -11 13 0 6 -7 25 -15 41
-8 15 -12 33 -8 39 3 6 1 7 -5 3 -7 -4 -12 -3 -12 1 0 5 -7 18 -15 29 -8 10
-1 -15 15 -57z"/>
<path d="M4411 6629 c-41 -8 -99 -44 -129 -79 -7 -8 -25 -39 -39 -69 -56 -117
-6 -274 107 -330 55 -28 88 -33 145 -21 139 29 228 171 196 314 -29 131 -150
211 -280 185z"/>
<path d="M6265 6628 c-51 -18 -102 -66 -129 -120 -78 -156 23 -355 190 -374
207 -25 335 219 211 403 -58 85 -176 125 -272 91z"/>
<path d="M5839 6479 c-3 -47 -6 -67 -12 -75 -9 -15 12 -152 30 -204 20 -53 57
-114 96 -155 l29 -30 -30 50 c-35 59 -78 165 -87 215 -3 19 -8 73 -10 119 -2
46 -7 86 -10 89 -3 3 -5 -1 -6 -9z"/>
<path d="M3805 6425 c-18 -116 23 -259 101 -358 30 -37 38 -34 14 6 -58 97
-86 188 -95 312 -3 44 -8 81 -10 83 -2 2 -7 -17 -10 -43z"/>
<path d="M7161 6314 c0 -11 3 -14 6 -6 3 7 2 16 -1 19 -3 4 -6 -2 -5 -13z"/>
<path d="M4822 5199 c-137 -27 -185 -140 -129 -299 64 -180 226 -323 432 -382
70 -20 102 -23 255 -23 191 0 257 12 377 65 213 96 362 298 351 476 -5 74 -25
108 -84 141 -39 21 -184 44 -155 25 10 -8 13 -27 9 -81 -8 -112 -20 -119 -243
-146 -165 -19 -306 -19 -469 0 -223 26 -236 34 -244 146 -4 54 -2 73 9 80 18
11 -49 10 -109 -2z"/>
<path d="M5643 5183 c9 -2 23 -2 30 0 6 3 -1 5 -18 5 -16 0 -22 -2 -12 -5z"/>
<path d="M5208 5173 c7 -3 16 -2 19 1 4 3 -2 6 -13 5 -11 0 -14 -3 -6 -6z"/>
<path d="M5573 5173 c9 -2 23 -2 30 0 6 3 -1 5 -18 5 -16 0 -22 -2 -12 -5z"/>
<path d="M1653 6883 c9 -2 25 -2 35 0 9 3 1 5 -18 5 -19 0 -27 -2 -17 -5z"/>
<path d="M1438 6853 c7 -3 16 -2 19 1 4 3 -2 6 -13 5 -11 0 -14 -3 -6 -6z"/>
<path d="M1648 5133 c6 -2 18 -2 25 0 6 3 1 5 -13 5 -14 0 -19 -2 -12 -5z"/>
<path d="M1728 5123 c7 -3 16 -2 19 1 4 3 -2 6 -13 5 -11 0 -14 -3 -6 -6z"/>
</g>
</svg>
